<svg width="20" height="20" viewBox="0 0 20 20" fill="none" xmlns="http://www.w3.org/2000/svg">
<g clip-path="url(#clip0_2_2512)">
<g clip-path="url(#clip1_2_2512)">
<path fill-rule="evenodd" clip-rule="evenodd" d="M6.35903 13C6.58191 13 6.66273 13.0232 6.74421 13.0668C6.82569 13.1104 6.88964 13.1743 6.93322 13.2558C6.97679 13.3373 7 13.4181 7 13.641V16.359C7 16.5819 6.97679 16.6627 6.93322 16.7442C6.88964 16.8257 6.82569 16.8896 6.74421 16.9332C6.66273 16.9768 6.58191 17 6.35903 17H3.64097C3.41809 17 3.33727 16.9768 3.25579 16.9332C3.17431 16.8896 3.11036 16.8257 3.06678 16.7442C3.02321 16.6627 3 16.5819 3 16.359V13.641C3 13.4181 3.02321 13.3373 3.06678 13.2558C3.11036 13.1743 3.17431 13.1104 3.25579 13.0668C3.33727 13.0232 3.41809 13 3.64097 13H6.35903ZM11.359 13C11.5819 13 11.6627 13.0232 11.7442 13.0668C11.8257 13.1104 11.8896 13.1743 11.9332 13.2558C11.9768 13.3373 12 13.4181 12 13.641V16.359C12 16.5819 11.9768 16.6627 11.9332 16.7442C11.8896 16.8257 11.8257 16.8896 11.7442 16.9332C11.6627 16.9768 11.5819 17 11.359 17H8.64097C8.41809 17 8.33727 16.9768 8.25579 16.9332C8.17431 16.8896 8.11036 16.8257 8.06678 16.7442C8.02321 16.6627 8 16.5819 8 16.359V13.641C8 13.4181 8.02321 13.3373 8.06678 13.2558C8.11036 13.1743 8.17431 13.1104 8.25579 13.0668C8.33727 13.0232 8.41809 13 8.64097 13H11.359ZM16.359 13C16.5819 13 16.6627 13.0232 16.7442 13.0668C16.8257 13.1104 16.8896 13.1743 16.9332 13.2558C16.9768 13.3373 17 13.4181 17 13.641V16.359C17 16.5819 16.9768 16.6627 16.9332 16.7442C16.8896 16.8257 16.8257 16.8896 16.7442 16.9332C16.6627 16.9768 16.5819 17 16.359 17H13.641C13.4181 17 13.3373 16.9768 13.2558 16.9332C13.1743 16.8896 13.1104 16.8257 13.0668 16.7442C13.0232 16.6627 13 16.5819 13 16.359V13.641C13 13.4181 13.0232 13.3373 13.0668 13.2558C13.1104 13.1743 13.1743 13.1104 13.2558 13.0668C13.3373 13.0232 13.4181 13 13.641 13H16.359ZM6.35903 8C6.58191 8 6.66273 8.02321 6.74421 8.06678C6.82569 8.11036 6.88964 8.17431 6.93322 8.25579C6.97679 8.33727 7 8.41809 7 8.64097V11.359C7 11.5819 6.97679 11.6627 6.93322 11.7442C6.88964 11.8257 6.82569 11.8896 6.74421 11.9332C6.66273 11.9768 6.58191 12 6.35903 12H3.64097C3.41809 12 3.33727 11.9768 3.25579 11.9332C3.17431 11.8896 3.11036 11.8257 3.06678 11.7442C3.02321 11.6627 3 11.5819 3 11.359V8.64097C3 8.41809 3.02321 8.33727 3.06678 8.25579C3.11036 8.17431 3.17431 8.11036 3.25579 8.06678C3.33727 8.02321 3.41809 8 3.64097 8H6.35903ZM11.359 8C11.5819 8 11.6627 8.02321 11.7442 8.06678C11.8257 8.11036 11.8896 8.17431 11.9332 8.25579C11.9768 8.33727 12 8.41809 12 8.64097V11.359C12 11.5819 11.9768 11.6627 11.9332 11.7442C11.8896 11.8257 11.8257 11.8896 11.7442 11.9332C11.6627 11.9768 11.5819 12 11.359 12H8.64097C8.41809 12 8.33727 11.9768 8.25579 11.9332C8.17431 11.8896 8.11036 11.8257 8.06678 11.7442C8.02321 11.6627 8 11.5819 8 11.359V8.64097C8 8.41809 8.02321 8.33727 8.06678 8.25579C8.11036 8.17431 8.17431 8.11036 8.25579 8.06678C8.33727 8.02321 8.41809 8 8.64097 8H11.359ZM16.359 8C16.5819 8 16.6627 8.02321 16.7442 8.06678C16.8257 8.11036 16.8896 8.17431 16.9332 8.25579C16.9768 8.33727 17 8.41809 17 8.64097V11.359C17 11.5819 16.9768 11.6627 16.9332 11.7442C16.8896 11.8257 16.8257 11.8896 16.7442 11.9332C16.6627 11.9768 16.5819 12 16.359 12H13.641C13.4181 12 13.3373 11.9768 13.2558 11.9332C13.1743 11.8896 13.1104 11.8257 13.0668 11.7442C13.0232 11.6627 13 11.5819 13 11.359V8.64097C13 8.41809 13.0232 8.33727 13.0668 8.25579C13.1104 8.17431 13.1743 8.11036 13.2558 8.06678C13.3373 8.02321 13.4181 8 13.641 8H16.359ZM6.35903 3C6.58191 3 6.66273 3.02321 6.74421 3.06678C6.82569 3.11036 6.88964 3.17431 6.93322 3.25579C6.97679 3.33727 7 3.41809 7 3.64097V6.35903C7 6.58191 6.97679 6.66273 6.93322 6.74421C6.88964 6.82569 6.82569 6.88964 6.74421 6.93322C6.66273 6.97679 6.58191 7 6.35903 7H3.64097C3.41809 7 3.33727 6.97679 3.25579 6.93322C3.17431 6.88964 3.11036 6.82569 3.06678 6.74421C3.02321 6.66273 3 6.58191 3 6.35903V3.64097C3 3.41809 3.02321 3.33727 3.06678 3.25579C3.11036 3.17431 3.17431 3.11036 3.25579 3.06678C3.33727 3.02321 3.41809 3 3.64097 3H6.35903ZM11.359 3C11.5819 3 11.6627 3.02321 11.7442 3.06678C11.8257 3.11036 11.8896 3.17431 11.9332 3.25579C11.9768 3.33727 12 3.41809 12 3.64097V6.35903C12 6.58191 11.9768 6.66273 11.9332 6.74421C11.8896 6.82569 11.8257 6.88964 11.7442 6.93322C11.6627 6.97679 11.5819 7 11.359 7H8.64097C8.41809 7 8.33727 6.97679 8.25579 6.93322C8.17431 6.88964 8.11036 6.82569 8.06678 6.74421C8.02321 6.66273 8 6.58191 8 6.35903V3.64097C8 3.41809 8.02321 3.33727 8.06678 3.25579C8.11036 3.17431 8.17431 3.11036 8.25579 3.06678C8.33727 3.02321 8.41809 3 8.64097 3H11.359ZM16.359 3C16.5819 3 16.6627 3.02321 16.7442 3.06678C16.8257 3.11036 16.8896 3.17431 16.9332 3.25579C16.9768 3.33727 17 3.41809 17 3.64097V6.35903C17 6.58191 16.9768 6.66273 16.9332 6.74421C16.8896 6.82569 16.8257 6.88964 16.7442 6.93322C16.6627 6.97679 16.5819 7 16.359 7H13.641C13.4181 7 13.3373 6.97679 13.2558 6.93322C13.1743 6.88964 13.1104 6.82569 13.0668 6.74421C13.0232 6.66273 13 6.58191 13 6.35903V3.64097C13 3.41809 13.0232 3.33727 13.0668 3.25579C13.1104 3.17431 13.1743 3.11036 13.2558 3.06678C13.3373 3.02321 13.4181 3 13.641 3H16.359Z" fill="black"/>
</g>
</g>
<defs>
<clipPath id="clip0_2_2512">
<rect width="20" height="20" fill="white"/>
</clipPath>
<clipPath id="clip1_2_2512">
<rect width="20" height="20" fill="white"/>
</clipPath>
</defs>
</svg>
