<svg width="40" height="40" viewBox="0 0 40 40" fill="none" xmlns="http://www.w3.org/2000/svg">
<path d="M22.7484 20.0002L34.4298 8.31823C35.1901 7.55836 35.1901 6.32976 34.4298 5.5699C33.67 4.81003 32.4414 4.81003 31.6816 5.5699L19.9998 17.2519L8.31842 5.5699C7.55822 4.81003 6.33 4.81003 5.57015 5.5699C4.80995 6.32976 4.80995 7.55836 5.57015 8.31823L17.2516 20.0002L5.57015 31.6822C4.80995 32.4421 4.80995 33.6707 5.57015 34.4305C5.94883 34.8096 6.44674 35 6.94429 35C7.44184 35 7.93939 34.8096 8.31842 34.4305L19.9998 22.7486L31.6816 34.4305C32.0606 34.8096 32.5582 35 33.0557 35C33.5533 35 34.0508 34.8096 34.4298 34.4305C35.1901 33.6707 35.1901 32.4421 34.4298 31.6822L22.7484 20.0002Z" fill="black"/>
</svg>
