<svg width="53" height="31" viewBox="0 0 53 31" fill="none" xmlns="http://www.w3.org/2000/svg">
<path d="M19.0144 30.873L21.0464 22.3954H17.7979L18.2305 20.4758H26.969L26.5433 22.3954H23.7059L21.674 30.873H19.0144Z" fill="#A59E9E"/>
<path d="M25.1242 30.873L27.5819 20.4758H34.6374L34.1106 22.3818H29.9029L29.3736 24.6498H33.4933L33.0744 26.4669H28.9617L28.3978 28.9671H32.8076L32.1798 30.873H25.1242Z" fill="#A59E9E"/>
<path d="M40.8194 30.7198C40.6859 30.7517 40.4994 30.7836 40.2599 30.8155C40.025 30.8473 39.7694 30.8769 39.4931 30.9043C39.2214 30.9316 38.9451 30.9544 38.6641 30.9726C38.3878 30.9908 38.1391 30.9999 37.9181 30.9999C37.2872 30.9999 36.7253 30.9384 36.2326 30.8155C35.7398 30.6925 35.323 30.4944 34.9822 30.2211C34.6414 29.9479 34.3812 29.5927 34.2016 29.1555C34.022 28.7137 33.9322 28.1763 33.9322 27.5433C33.9322 27.2974 33.9437 27.04 33.9668 26.7714C33.9898 26.5027 34.0289 26.218 34.0842 25.9174L34.3121 24.7288C34.4872 23.7952 34.7335 23.0324 35.0513 22.4403C35.3737 21.8437 35.7651 21.3769 36.2256 21.0399C36.6862 20.6984 37.2181 20.4638 37.8214 20.3363C38.4293 20.2088 39.1086 20.145 39.8592 20.145C40.0803 20.145 40.3267 20.1541 40.5984 20.1723C40.8701 20.1906 41.1372 20.2133 41.3997 20.2407C41.6668 20.268 41.9109 20.2999 42.1319 20.3363C42.3576 20.3682 42.7347 20.5023 42.859 20.5387L42.4333 22.2969C42.2583 22.2832 41.9661 22.2695 41.7589 22.2559C41.5517 22.2422 41.3352 22.2286 41.1096 22.2149C40.8885 22.2012 40.6628 22.1921 40.4326 22.1876C40.2069 22.1785 39.9859 22.1739 39.7694 22.1739C39.378 22.1739 39.0303 22.2126 38.7263 22.29C38.427 22.3675 38.1622 22.5109 37.9319 22.7204C37.7062 22.9253 37.5128 23.21 37.3516 23.5743C37.1951 23.9341 37.0638 24.3986 36.9579 24.9679L36.7299 26.1565C36.647 26.6211 36.6056 27.0082 36.6056 27.3179C36.6056 27.6458 36.647 27.9167 36.7299 28.1308C36.8128 28.3403 36.9349 28.5065 37.096 28.6295C37.2618 28.7524 37.4645 28.839 37.7039 28.889C37.948 28.9346 38.2266 28.9574 38.5398 28.9574C38.7563 28.9574 38.9796 28.9551 39.2099 28.9505C39.4401 28.9414 39.6681 28.9323 39.8938 28.9232C40.1194 28.9141 40.3382 28.9027 40.55 28.889C40.7619 28.8708 41.1574 28.8549 41.3324 28.8412L40.8194 30.7198Z" fill="#A59E9E"/>
<path d="M48.1999 30.873L49.0815 26.4942H45.0291L43.9523 30.873H41.4948L43.7504 20.4758H46.2078L45.3676 24.5063H49.521L50.5564 20.4758H53.0001L50.6435 30.873H48.1999Z" fill="#A59E9E"/>
<path d="M1.13474 3.63102C0.898745 6.72124 3.78965 8.24354 5.26461 8.6184C4.35997 8.30547 3.47827 6.76036 3.15051 6.02692C4.34686 6.74406 7.57537 8.16856 10.9186 8.12945C14.2618 8.09033 15.7204 9.64522 16.0318 10.4276L10.132 10.9654L13.2294 11.2588L14.606 12.2367L17.6051 11.6499C22.9542 11.8455 24.7504 15.8387 24.9798 17.8108L22.5216 16.9307C18.195 15.679 12.9835 17.6804 10.9186 18.8376L12.9835 16.9307C5.11711 18.7692 1.08557 24.1184 0.0531033 26.5632C-0.37955 29.9272 1.93777 30.8986 3.15051 30.9638H15.7368C17.0741 30.9638 17.5395 30.1489 17.6051 29.7414L18.2934 27.0033C19.0013 24.8127 17.4739 24.5585 16.6217 24.7052C14.9174 24.6726 11.0071 24.6269 9.00115 24.7052C6.99522 24.7834 6.42818 23.9554 6.3954 23.5317C6.31674 21.5758 8.09979 20.7609 9.00115 20.5979L8.70616 21.8692C12.1281 18.2313 16.294 17.4523 17.9492 17.5175C17.9492 17.5175 24.3079 17.6967 25.7665 18.4954C25.0978 12.6279 20.2764 10.672 17.9492 10.4276C16.2579 8.31525 12.9508 7.62419 11.5086 7.54269C10.7219 6.68213 11.6069 6.46698 12.1477 6.46698H19.5717C20.791 6.46698 21.1286 6.01062 21.1449 5.78244L22.8166 1.23512C23.5245 0.100736 22.7182 -0.05247 22.2266 0.0127249H3.69132C2.93746 -0.0687682 1.37073 0.540801 1.13474 3.63102Z" fill="#A59E9E"/>
<path d="M5.65771 9.10726C1.92116 9.10726 0.397041 6.36909 0.102051 5V7.98265C1.83266 9.46909 4.52691 9.35174 5.65771 9.10726Z" fill="#A59E9E"/>
<path d="M7.91931 12.7256C3.67144 12.4126 0.937858 13.5731 0.102051 14.1924V17.664C0.102051 14.7303 5.31355 13.1493 7.91931 12.7256Z" fill="#A59E9E"/>
</svg>
