<svg width="20" height="20" viewBox="0 0 20 20" fill="none" xmlns="http://www.w3.org/2000/svg">
<g clip-path="url(#clip0_2_2798)">
<g clip-path="url(#clip1_2_2798)">
<g opacity="0.4">
<path d="M5.93118 5.56668V16.7473H1.76081V5.56668H5.93118ZM13.4667 5.31187C16.64 5.31187 17.7653 7.09461 17.7653 10.6576L17.7846 16.7473H13.6186V11.2933C13.6186 10.9797 13.6171 10.8368 13.6098 10.6628C13.5628 9.5354 13.2943 9.09702 12.4712 9.09702C11.4097 9.09702 11.0749 9.7056 11.0749 11.2103V16.7473H6.89859V5.56668H10.9327V6.16249C11.6393 5.5882 12.5384 5.2759 13.4667 5.31187ZM4.93118 6.56668H2.76081V15.7473H4.93118V6.56668ZM10.9058 7.70564L10.761 7.95333H9.93266V6.56668H7.89859V15.7473H10.0749V11.2103C10.0749 9.22676 10.6964 8.09702 12.4712 8.09702C13.9725 8.09702 14.5425 9.02763 14.609 10.6211C14.6156 10.7815 14.6179 10.914 14.6184 11.1432L14.6186 15.7473H16.7814L16.7653 10.6592C16.7653 7.57759 15.9663 6.31186 13.4475 6.3115C12.4079 6.2715 11.4308 6.80745 10.9058 7.70564ZM4.7297 0.677239C5.60392 1.03852 6.17414 1.89116 6.17414 2.83708C6.17414 4.12484 5.13241 5.16994 3.84465 5.17414C2.89872 5.17714 2.04424 4.60969 1.68014 3.73665C1.31603 2.86361 1.51411 1.85718 2.1819 1.18724C2.84969 0.517291 3.85548 0.315961 4.7297 0.677239ZM2.89015 1.8932C2.5081 2.27648 2.39478 2.85226 2.60308 3.35173C2.81139 3.8512 3.30024 4.17585 3.84142 4.17413C4.57816 4.17172 5.17414 3.57381 5.17414 2.83708C5.17414 2.29592 4.84791 1.80812 4.34777 1.60143C3.84762 1.39474 3.2722 1.50992 2.89015 1.8932Z" fill="#0273B0"/>
</g>
</g>
</g>
<defs>
<clipPath id="clip0_2_2798">
<rect width="20" height="20" fill="white"/>
</clipPath>
<clipPath id="clip1_2_2798">
<rect width="20" height="20" fill="white"/>
</clipPath>
</defs>
</svg>
