<svg width="109" height="64" viewBox="0 0 109 64" fill="none" xmlns="http://www.w3.org/2000/svg">
<path d="M39.0404 63.738L43.2123 46.2359H36.5425L37.4308 42.2728H55.3728L54.4987 46.2359H48.673L44.501 63.738H39.0404Z" fill="white"/>
<path d="M51.585 63.738L56.6311 42.2728H71.1177L70.0361 46.2077H61.3967L60.3099 50.8899H68.7685L67.9086 54.6414H59.4641L58.3064 59.8032H67.3607L66.0716 63.738H51.585Z" fill="white"/>
<path d="M83.8106 63.4217C83.5364 63.4875 83.1535 63.5533 82.6618 63.6192C82.1795 63.685 81.6547 63.7461 81.0874 63.8025C80.5295 63.8589 79.9622 63.9059 79.3854 63.9435C78.8181 63.9811 78.3074 63.9999 77.8536 63.9999C76.5582 63.9999 75.4046 63.873 74.3928 63.6192C73.3811 63.3653 72.5253 62.9563 71.8256 62.3922C71.1259 61.828 70.5917 61.0947 70.2229 60.1921C69.8541 59.28 69.6697 58.1706 69.6697 56.8637C69.6697 56.356 69.6934 55.8247 69.7407 55.27C69.7879 54.7153 69.8683 54.1277 69.9818 53.5071L70.4498 51.0531C70.8091 49.1257 71.315 47.5508 71.9674 46.3285C72.6293 45.0969 73.4331 44.1331 74.3786 43.4374C75.3242 42.7322 76.4163 42.248 77.655 41.9847C78.9032 41.7215 80.2979 41.5898 81.8391 41.5898C82.293 41.5898 82.7989 41.6086 83.3568 41.6463C83.9146 41.6839 84.4631 41.7309 85.002 41.7873C85.5505 41.8437 86.0516 41.9095 86.5055 41.9847C86.9688 42.0506 87.7431 42.3274 87.9984 42.4026L87.1243 46.0324C86.765 46.0042 86.1651 45.976 85.7396 45.9478C85.3141 45.9195 84.8697 45.8913 84.4063 45.8631C83.9525 45.8349 83.4891 45.8161 83.0163 45.8067C82.553 45.7879 82.0992 45.7785 81.6547 45.7785C80.851 45.7785 80.1371 45.8584 79.513 46.0183C78.8984 46.1781 78.3547 46.4743 77.8819 46.9068C77.4186 47.3299 77.0215 47.9175 76.6905 48.6697C76.369 49.4125 76.0996 50.3715 75.8821 51.5468L75.414 54.0007C75.2438 54.9597 75.1587 55.7589 75.1587 56.3983C75.1587 57.0752 75.2438 57.6347 75.414 58.0766C75.5842 58.5091 75.8348 58.8522 76.1657 59.1061C76.5061 59.36 76.9222 59.5386 77.4139 59.642C77.915 59.7361 78.4871 59.7831 79.1301 59.7831C79.5745 59.7831 80.0331 59.7784 80.5059 59.769C80.9787 59.7502 81.4467 59.7313 81.91 59.7125C82.3734 59.6937 82.8225 59.6702 83.2575 59.642C83.6924 59.6044 84.5045 59.5715 84.8638 59.5433L83.8106 63.4217Z" fill="white"/>
<path d="M98.9642 63.738L100.774 54.6978H92.454L90.243 63.738H85.1974L89.8285 42.2728H94.8741L93.149 50.5938H101.677L103.803 42.2728H108.82L103.981 63.738H98.9642Z" fill="white"/>
<path d="M2.32985 7.4963C1.84531 13.8761 7.78096 17.0189 10.8094 17.7928C8.95194 17.1468 7.14163 13.9569 6.46865 12.4427C8.92501 13.9232 15.5538 16.8641 22.4182 16.7834C29.2825 16.7026 32.2773 19.9127 32.9166 21.5278L20.803 22.6383L27.1627 23.2439L29.9892 25.2629L36.1469 24.0515C47.1299 24.4553 50.8178 32.6992 51.2888 36.7707L46.2415 34.9537C37.3582 32.3695 26.6579 36.5016 22.4182 38.8906L26.6579 34.9537C10.5065 38.7493 2.2289 49.7928 0.109032 54.8401C-0.779296 61.7853 3.97864 63.7907 6.46865 63.9253H32.3109C35.0567 63.9253 36.0123 62.2429 36.1469 61.4017L37.5601 55.7487C39.0138 51.2263 35.8777 50.7013 34.128 51.0042C30.6285 50.9369 22.5999 50.8427 18.4813 51.0042C14.3627 51.1657 13.1984 49.4563 13.1311 48.5815C12.9696 44.5436 16.6306 42.8612 18.4813 42.5247L17.8756 45.1493C24.9015 37.6389 33.455 36.0305 36.8535 36.1651C36.8535 36.1651 49.9092 36.5352 52.904 38.184C51.5311 26.0704 41.6316 22.0326 36.8535 21.5278C33.381 17.167 26.5906 15.7403 23.6295 15.572C22.0144 13.7954 23.8314 13.3512 24.9418 13.3512H40.1847C42.6882 13.3512 43.3814 12.409 43.415 11.9379L46.8472 2.54993C48.3008 0.207972 46.6453 -0.108325 45.6358 0.0262709H7.57906C6.03122 -0.141973 2.8144 1.11649 2.32985 7.4963Z" fill="white"/>
<path d="M11.6169 18.8022C3.94498 18.8022 0.815639 13.1493 0.209961 10.3228V16.4805C3.76327 19.5493 9.29514 19.307 11.6169 18.8022Z" fill="white"/>
<path d="M16.2604 26.2723C7.53867 25.6262 1.92605 28.022 0.209961 29.3007V36.4679C0.209961 30.4111 10.9103 27.1471 16.2604 26.2723Z" fill="white"/>
</svg>
