<svg width="24" height="25" viewBox="0 0 24 25" fill="none" xmlns="http://www.w3.org/2000/svg">
<path d="M21.3991 2.10366C21.3178 2.03218 21.2105 1.99966 21.1021 2.01252L9.43152 3.52942C9.24404 3.55401 9.10362 3.71398 9.10362 3.90421V6.17976V7.77268V17.3726C8.41618 16.5425 7.32404 16.0024 6.09185 16.0024C4.016 16.0024 2.32715 17.5291 2.32715 19.4061C2.32715 21.283 4.016 22.8098 6.09185 22.8098C8.16771 22.8098 9.85656 21.283 9.85656 19.4061C9.85656 19.3183 9.84941 19.2321 9.84188 19.1463C9.84677 19.1217 9.85656 19.0994 9.85656 19.0737V8.10511L20.7742 6.68577V13.5903C20.0868 12.7606 18.9946 12.2205 17.7624 12.2205C15.6866 12.2205 13.9977 13.7473 13.9977 15.6242C13.9977 17.5012 15.6866 19.0279 17.7624 19.0279C19.8195 19.0279 21.4944 17.528 21.5245 15.6745C21.5245 15.6696 21.5271 15.6654 21.5271 15.6605V6.25539V4.66285V2.38768C21.5271 2.27876 21.4805 2.17514 21.3991 2.10366Z" fill="white"/>
</svg>
