<svg width="24" height="25" viewBox="0 0 24 25" fill="none" xmlns="http://www.w3.org/2000/svg">
<g clip-path="url(#clip0_2_2608)">
<path d="M22.3791 13.3057C22.3791 10.4455 20.0091 8.08429 17.0849 8.01722C17.1194 7.77273 17.1378 7.52428 17.1378 7.27794C17.1378 4.36074 14.7063 1.98828 11.7166 1.98828C8.72779 1.98828 6.29673 4.36074 6.29673 7.27794C6.29673 7.62506 6.33176 7.97189 6.40026 8.31135C3.69282 8.60219 1.5791 10.9009 1.5791 13.5675C1.5791 16.484 4.01123 18.8571 7.00074 18.8571C8.62696 18.8571 10.184 18.1316 11.2063 16.9083C10.778 18.8331 9.50203 21.231 5.9173 22.177L5.76809 22.2169L5.84396 22.7883H18.2063L18.2732 22.2119L18.1229 22.177C17.9608 22.1371 14.1881 21.1641 12.9729 16.8925C13.9868 17.9625 15.4605 18.5946 16.9587 18.5946C19.9472 18.5946 22.3791 16.2226 22.3791 13.3057Z" fill="white"/>
</g>
<defs>
<clipPath id="clip0_2_2608">
<rect width="24" height="24" fill="white" transform="translate(0 0.410156)"/>
</clipPath>
</defs>
</svg>
