<svg width="20" height="20" viewBox="0 0 20 20" fill="none" xmlns="http://www.w3.org/2000/svg">
<g clip-path="url(#clip0_2_2503)">
<g clip-path="url(#clip1_2_2503)">
<path fill-rule="evenodd" clip-rule="evenodd" d="M17 8C17.5523 8 18 8.44772 18 9V16C18 16.5523 17.5523 17 17 17H3C2.44772 17 2 16.5523 2 16V9C2 8.44772 2.44772 8 3 8H17ZM16 5C16.5523 5 17 5.44772 17 6V7H3V6C3 5.44772 3.44772 5 4 5H16ZM14 2C14.5523 2 15 2.44772 15 3V4H5V3C5 2.44772 5.44772 2 6 2H14Z" fill="black"/>
</g>
</g>
<defs>
<clipPath id="clip0_2_2503">
<rect width="20" height="20" fill="white"/>
</clipPath>
<clipPath id="clip1_2_2503">
<rect width="20" height="20" fill="white"/>
</clipPath>
</defs>
</svg>
