<svg width="20" height="20" viewBox="0 0 20 20" fill="none" xmlns="http://www.w3.org/2000/svg">
<g clip-path="url(#clip0_2_2780)">
<g clip-path="url(#clip1_2_2780)">
<g opacity="0.4">
<path d="M17.5728 7.00746C17.7412 10.301 16.8188 12.9299 14.8086 14.7402C12.4951 16.8239 8.85904 17.6208 4.83718 16.9899C4.14365 16.8812 3.4076 16.6542 2.65292 16.3449L0.196289 15.3378L2.70688 14.474C3.55324 14.1828 4.23264 13.922 5.02295 13.5749C4.19125 13.2648 3.48705 12.7064 2.99291 11.9468L2.0538 10.5031L2.97632 10.4495C2.52348 10.1356 2.15311 9.74379 1.86095 9.30004C1.605 8.91098 1.41903 8.49265 1.3032 8.06832L0.844514 6.38789L1.99633 6.69681C1.25501 5.65656 1.00043 4.37198 1.3285 3.11401L1.77846 1.38866L3.01604 2.67229C3.46549 3.13846 3.93813 3.54937 4.43177 3.90874C5.58102 4.74538 6.80526 5.28021 8.07423 5.58221C8.50436 5.68457 8.92169 5.75587 9.33732 5.80402C8.95916 3.96166 9.76768 2.62446 11.0506 1.83584C12.6679 0.841906 14.9017 0.931981 16.3806 2.29392C16.4024 2.31399 16.4182 2.31823 16.4245 2.31668C16.6663 2.25659 16.8772 2.19165 17.1228 2.10411L19.0939 1.40166L18.3625 3.49026L19.5905 3.49113L18.3999 5.08756C18.2599 5.2752 18.1151 5.46902 17.9552 5.68239C17.686 6.04183 17.5476 6.51288 17.5728 7.00746ZM17.1548 5.08283C17.3305 4.84845 17.4765 4.65299 17.5983 4.48972L16.9531 4.48926L17.4585 3.04608C17.2157 3.1326 16.9678 3.2121 16.6656 3.28717C16.329 3.37079 15.9694 3.27451 15.7034 3.02976C14.472 1.89572 12.6942 1.99948 11.5742 2.68781C11.0381 3.0174 9.84924 3.99106 10.3917 5.90863C10.4161 5.99484 10.4185 5.99698 10.5118 6.90259C10.0882 6.80432 5.88012 7.08371 2.29614 3.36636C1.95877 4.66001 2.41897 6.00568 3.56735 6.90137L5.16113 8.14465L3.14956 7.94568C2.73986 7.90509 2.4858 7.86344 2.26791 7.80499C2.35 8.10574 2.48687 8.43198 2.69638 8.75043C3.01544 9.23505 3.6174 9.86691 4.67346 10.1256L6.84677 10.6578L4.69146 11.2581C4.40902 11.3368 4.12536 11.3844 3.83117 11.4015C4.38522 12.2532 5.28656 12.7778 6.36901 12.8471L8.62884 12.9918L6.58203 13.9605C5.11581 14.6545 4.20791 15.0151 3.03222 15.4196C3.61251 15.6575 4.31365 15.8957 4.99206 16.002C8.73809 16.5896 12.0723 15.8589 14.1394 13.9972C15.909 12.4035 16.7281 10.0689 16.5741 7.05853C16.5372 6.33405 16.7433 5.6323 17.1548 5.08283Z" fill="#1EA1F1"/>
</g>
</g>
</g>
<defs>
<clipPath id="clip0_2_2780">
<rect width="20" height="20" fill="white"/>
</clipPath>
<clipPath id="clip1_2_2780">
<rect width="20" height="20" fill="white"/>
</clipPath>
</defs>
</svg>
