<svg width="20" height="20" viewBox="0 0 20 20" fill="none" xmlns="http://www.w3.org/2000/svg">
<g clip-path="url(#clip0_2_2789)">
<g clip-path="url(#clip1_2_2789)">
<g opacity="0.4">
<path d="M10.1229 2.50049C10.1756 2.5007 10.2399 2.50103 10.3148 2.50154C10.564 2.50321 10.8415 2.50623 11.1403 2.51091C11.9945 2.52431 12.8489 2.54843 13.6475 2.586C15.1802 2.65812 16.3178 2.76955 16.9451 2.93825C17.9815 3.22078 18.7891 4.03355 19.065 5.07166C19.2051 5.59772 19.307 6.31049 19.3793 7.17056C19.4322 7.80067 19.4661 8.47362 19.4849 9.14627C19.4962 9.54973 19.5 9.86418 19.5 10.0456C19.5 10.2271 19.4962 10.5416 19.4849 10.945C19.4661 11.6177 19.4322 12.2906 19.3793 12.9207C19.307 13.7809 19.2051 14.4937 19.065 15.0195C18.7892 16.0577 17.9815 16.8705 16.9435 17.1535C16.3178 17.3217 15.1802 17.4332 13.6475 17.5053C12.8489 17.5429 11.9945 17.567 11.1403 17.5804C10.8415 17.5851 10.564 17.5881 10.3148 17.5898C10.2399 17.5903 10.1756 17.5906 10.1229 17.5908H9.87714C9.82438 17.5906 9.7601 17.5903 9.6852 17.5898C9.43603 17.5881 9.1585 17.5851 8.85966 17.5804C8.00546 17.567 7.15109 17.5429 6.35252 17.5053C4.81976 17.4332 3.68225 17.3217 3.05485 17.153C2.01848 16.8705 1.21084 16.0577 0.935018 15.0198C0.794934 14.4937 0.692956 13.7809 0.620722 12.9207C0.567805 12.2906 0.533896 11.6177 0.515067 10.945C0.503773 10.5416 0.5 10.2271 0.5 10.0456L0.500242 9.95986C0.501231 9.77252 0.505386 9.49209 0.515067 9.14627C0.533896 8.47362 0.567805 7.80067 0.620722 7.17056C0.692956 6.31042 0.794934 5.59761 0.934954 5.07178C1.21084 4.03361 2.01848 3.22079 3.05653 2.9378C3.68225 2.76955 4.81976 2.65812 6.35252 2.586C7.15109 2.54843 8.00546 2.52431 8.85966 2.51091C9.1585 2.50623 9.43603 2.50321 9.6852 2.50154C9.7601 2.50103 9.82438 2.5007 9.87714 2.50049H10.1229ZM10.1196 3.50048H9.88044C9.8288 3.50069 9.76566 3.50102 9.69192 3.50151C9.44563 3.50317 9.17107 3.50615 8.87535 3.51079C8.03081 3.52403 7.18644 3.54787 6.39952 3.5849C4.94096 3.65352 3.84748 3.76064 3.31787 3.90304C2.62539 4.09183 2.08575 4.63494 1.90135 5.32885C1.77963 5.78593 1.68493 6.44788 1.61721 7.25424C1.56603 7.86368 1.53302 8.51881 1.51468 9.17425C1.50681 9.45524 1.50269 9.6913 1.50098 9.86619V10.2251C1.50269 10.4 1.50681 10.6361 1.51468 10.917C1.53302 11.5725 1.56603 12.2276 1.61721 12.8371C1.68493 13.6434 1.77963 14.3054 1.90141 14.7627C2.08575 15.4564 2.62539 15.9995 3.3162 16.1878C3.84748 16.3307 4.94096 16.4378 6.39952 16.5064C7.18644 16.5434 8.03081 16.5673 8.87535 16.5805C9.17107 16.5851 9.44563 16.5881 9.69192 16.5898C9.76566 16.5903 9.8288 16.5906 9.88044 16.5908H10.1196C10.1712 16.5906 10.2343 16.5903 10.3081 16.5898C10.5544 16.5881 10.8289 16.5851 11.1247 16.5805C11.9692 16.5673 12.8136 16.5434 13.6005 16.5064C15.059 16.4378 16.1525 16.3307 16.6821 16.1883C17.3746 15.9995 17.9142 15.4564 18.0987 14.7624C18.2204 14.3054 18.3151 13.6434 18.3828 12.8371C18.434 12.2276 18.467 11.5725 18.4853 10.917C18.4963 10.5237 18.5 10.2183 18.5 10.0456C18.5 9.87296 18.4963 9.56764 18.4853 9.17425C18.467 8.51881 18.434 7.86368 18.3828 7.25424C18.3151 6.44788 18.2204 5.78593 18.0986 5.32861C17.9142 4.63494 17.3746 4.09183 16.6838 3.9035C16.1525 3.76064 15.059 3.65352 13.6005 3.5849C12.8136 3.54787 11.9692 3.52403 11.1247 3.51079C10.8289 3.50615 10.5544 3.50317 10.3081 3.50151C10.2343 3.50102 10.1712 3.50069 10.1196 3.50048ZM7.45455 6.21208L14.193 10.0456L7.45455 13.8792V6.21208ZM8.45455 7.93149V12.1598L12.1707 10.0456L8.45455 7.93149Z" fill="#FF2500"/>
</g>
</g>
</g>
<defs>
<clipPath id="clip0_2_2789">
<rect width="20" height="20" fill="white"/>
</clipPath>
<clipPath id="clip1_2_2789">
<rect width="20" height="20" fill="white"/>
</clipPath>
</defs>
</svg>
